<?xml version="1.0" encoding="utf-8"?>
<!-- Generator: Adobe Illustrator 20.0.0, SVG Export Plug-In . SVG Version: 6.00 Build 0)  -->
<svg version="1.1" id="Layer_1" xmlns="http://www.w3.org/2000/svg" xmlns:xlink="http://www.w3.org/1999/xlink" x="0px" y="0px"
	 viewBox="0 0 203.4 149.7" style="enable-background:new 0 0 203.4 149.7;" xml:space="preserve">
<style type="text/css">
	.st0{fill:#CB3727;stroke:#000000;stroke-miterlimit:10;}
	.st1{fill:#020202;}
	.st2{fill:none;stroke:#000000;stroke-miterlimit:10;}
	.st3{fill:#986828;stroke:#000000;stroke-miterlimit:10;}
</style>
<g>
	<g>
		<ellipse class="st0" cx="65.6" cy="56.2" rx="63.5" ry="29.1"/>
		<ellipse class="st1" cx="69.1" cy="47.6" rx="23.1" ry="2.8"/>
		<path class="st2" d="M2.1,56.2c0,0,9.2,17.2,65.8,17.2s61.2-17.2,61.2-17.2"/>
	</g>
	<path class="st3" d="M173.8,73.1c-8.1,40.8-13.1,74.1-11.2,74.5s10-32.4,18-73.1c1.1-5.7,2.2-11.3,3.2-16.7
		c4-21.6,16.5-39.4,17.5-49.3c0.5-5.1-9-8.4-9.6-8.5c-0.4-0.1-1.2,1.6-2.3,4.9c-2.8,8.7-7.5,28.4-12.6,52.6
		C176,62.5,174.9,67.8,173.8,73.1z"/>
</g>
</svg>
