<?xml version="1.0" encoding="utf-8"?>
<!-- Generator: Adobe Illustrator 20.0.0, SVG Export Plug-In . SVG Version: 6.00 Build 0)  -->
<svg version="1.1" id="Layer_1" xmlns="http://www.w3.org/2000/svg" xmlns:xlink="http://www.w3.org/1999/xlink" x="0px" y="0px"
	 viewBox="0 0 57.8 97.8" style="enable-background:new 0 0 57.8 97.8;" xml:space="preserve">
<style type="text/css">
	.st0{fill:#CDDE60;stroke:#000000;stroke-miterlimit:10;}
	.st1{fill:#CCCCCB;stroke:#000000;stroke-miterlimit:10;}
	.st2{fill:#020202;stroke:#000000;stroke-miterlimit:10;}
</style>
<g>
	<path class="st0" d="M56.5,33.3c0-17.4-12.2-31.4-27.2-31.4S2.1,15.9,2.1,33.3c0,12.1,12.5,22.9,14.7,27.9s0,20.5,0,20.5h25.1
		c0,0-2.4-16.5,0-20.5C44.2,57.2,56.5,45.4,56.5,33.3z"/>
	<ellipse class="st1" cx="29.3" cy="73.7" rx="17" ry="2"/>
	<ellipse class="st1" cx="29.3" cy="77.7" rx="17" ry="2"/>
	<ellipse class="st1" cx="29.3" cy="81.7" rx="17" ry="2"/>
	<ellipse class="st1" cx="29.3" cy="85.7" rx="17" ry="2"/>
	<ellipse class="st1" cx="29.3" cy="89.7" rx="17" ry="2"/>
	<ellipse class="st1" cx="29.3" cy="93.7" rx="14.6" ry="2"/>
	<ellipse class="st2" cx="29.3" cy="95.7" rx="9.4" ry="1"/>
</g>
</svg>
