<?xml version="1.0" encoding="utf-8"?>
<!-- Generator: Adobe Illustrator 20.0.0, SVG Export Plug-In . SVG Version: 6.00 Build 0)  -->
<svg version="1.1" id="Layer_1" xmlns="http://www.w3.org/2000/svg" xmlns:xlink="http://www.w3.org/1999/xlink" x="0px" y="0px"
	 viewBox="0 0 128.5 159" style="enable-background:new 0 0 128.5 159;" xml:space="preserve">
<style type="text/css">
	.st0{fill:#999965;stroke:#000000;stroke-miterlimit:10;}
	.st1{fill:#986828;stroke:#000000;stroke-miterlimit:10;}
</style>
<g>
	<path class="st0" d="M106.5,157.4h-72c-6.6,0-12-5.4-12-12v-120c0-6.6,5.4-12,12-12h72c6.6,0,12,5.4,12,12v120
		C118.5,152,113.1,157.4,106.5,157.4z"/>
	<path class="st1" d="M26.5,16.5c0,6.3,10.3,9.7,12.3,19s-4,17.9-0.7,21.2c3.3,3.3,30.7,3.3,45.3,3.3s40.7,0.7,43.3-4.7
		s-4.7-30.5-12.3-38.9S26.5,10.2,26.5,16.5z"/>
	<rect x="40.9" y="85.4" class="st1" width="59.3" height="40"/>
	<polygon class="st1" points="70.5,105.4 40.9,85.4 100.2,85.4 	"/>
	<path class="st1" d="M44.8,12c0,0-32.7-19.1-42-6.5s19.7,139.8,19.7,139.8s1.3-10,0-24.3c-3.2-34.8-10.4-95.4-5-101
		c7.6-8,9-3.6,9-3.6L44.8,12z"/>
	<path class="st1" d="M109.5,13.4c0,0-22.4-12.2-32.5-12.2s-6.5,9.7-6.5,9.7L109.5,13.4z"/>
</g>
</svg>
